<?xml version="1.0" encoding="utf-8"?>
<!-- Generator: Adobe Illustrator 23.0.3, SVG Export Plug-In . SVG Version: 6.00 Build 0)  -->
<svg version="1.1" id="Livello_1" xmlns="http://www.w3.org/2000/svg" xmlns:xlink="http://www.w3.org/1999/xlink" x="0px" y="0px"
	 viewBox="0 0 1021 300" style="enable-background:new 0 0 1021 300;" xml:space="preserve">
<style type="text/css">
	.st0{fill:#001939;}
	.st1{opacity:0.3;}
	.st2{fill:#FFD202;}
	.st3{fill:#FFBE13;}
</style>
<g>
	<g>
		<g>
			<path class="st0" d="M207.68,234.01h-93.09c-51.41,0-93.09-41.68-93.09-93.09v0c0-51.41,41.68-93.09,93.09-93.09h0
				c51.41,0,93.09,41.68,93.09,93.09V234.01z"/>
		</g>
		<path class="st1" d="M114.22,56.41c22.47,0,43.6,8.75,59.49,24.64s24.64,37.02,24.64,59.49v84.13h-84.13
			c-22.47,0-43.6-8.75-59.49-24.64c-15.89-15.89-24.64-37.02-24.64-59.49c0-22.47,8.75-43.6,24.64-59.49S91.74,56.41,114.22,56.41
			 M114.22,48.05L114.22,48.05c-51.08,0-92.49,41.41-92.49,92.49v0c0,51.08,41.41,92.49,92.49,92.49h92.49v-92.49
			C206.71,89.46,165.3,48.05,114.22,48.05L114.22,48.05z"/>
		<polygon class="st2" points="182.95,52.99 163.11,83.95 101.68,83.95 96.24,93.16 156.73,93.16 139.48,121.51 86.55,121.51 
			66,169.95 30.79,169.71 67.18,52.99 		"/>
		<polygon class="st3" points="197.6,144.91 211.91,130.26 92.13,130.26 75.55,169.71 108.4,169.48 92.8,252.18 155.12,188.38 
			130.61,188.38 138.17,179.4 163.9,179.4 188.82,153.88 142.42,153.88 149.98,144.91 		"/>
	</g>
	<g>
		<path class="st0" d="M240.47,117.27h39.55v8.99h-28.52v19.82h22.24v8.99h-22.24v29.4h-11.02V117.27z"/>
		<path class="st0" d="M301.29,117.27v58.31h22.72v8.9h-33.75v-67.2H301.29z"/>
		<path class="st0" d="M333.1,117.27h11.02v42.84c0,10.44,5.9,15.38,15.18,15.38c9.38,0,15.28-4.93,15.28-15.38v-42.84h11.02v42.64
			c0,17.12-12.38,25.24-26.4,25.24c-14.12,0-26.11-8.12-26.11-25.24V117.27z"/>
		<path class="st0" d="M437.05,126.16h-26.11v19.73h23.21v8.99h-23.21v20.6h26.11v8.99h-37.13v-67.3h37.13V126.16z"/>
		<path class="st0" d="M505.8,117.17v67.3h-11.02l-33.17-50.19v50.19h-11.02v-67.3h11.02l33.17,50.09v-50.09H505.8z"/>
		<path class="st0" d="M516.82,117.27h46.9v8.99h-17.89v58.21h-11.02v-58.21h-17.99V117.27z"/>
		<path class="st3" d="M618.06,133.13h-24.17v8.41h21.27v16.15h-21.27v9.67h24.17v17.12h-45.64v-68.46h45.64V133.13z"/>
		<path class="st3" d="M672.31,116.01h22.82l-23.01,68.46h-27.75l-23.01-68.46h22.82l14.12,47.09L672.31,116.01z"/>
		<path class="st3" d="M745.6,133.13h-24.17v8.41h21.27v16.15h-21.27v9.67h24.17v17.12h-45.64v-68.46h45.64V133.13z"/>
		<path class="st3" d="M819.38,116.01v68.46h-21.47l-22.72-34.42v34.42h-21.47v-68.46h21.47l22.72,35v-35H819.38z"/>
		<path class="st3" d="M825.18,116.01h57.63v17.02h-18.18v51.44h-21.47v-51.44h-17.99V116.01z"/>
		<path class="st3" d="M915.4,185.15c-15.66,0-27.94-7.25-28.91-22.63h22.82c0.39,5.03,3.09,5.9,5.22,5.9s4.16-0.97,4.16-3.38
			c-0.1-9.28-32.39-5.9-32.01-29.3c0-13.73,11.6-20.89,26.21-20.89c16.53,0,27.17,7.93,27.75,22.14h-23.11
			c-0.19-4.16-2.42-5.42-4.74-5.42c-1.74,0-3.09,1.16-3.09,3.48c0,8.61,31.81,7.16,31.81,28.23
			C941.51,175.87,931.93,185.15,915.4,185.15z"/>
	</g>
</g>
<polygon class="st0" points="951,184 978,95 855,98 877,76 572,97 572,97 583,89 581,94 920,56 887,83 1002,77 "/>
</svg>
