<?xml version="1.0" encoding="iso-8859-1"?>
<!-- Generator: Adobe Illustrator 19.0.0, SVG Export Plug-In . SVG Version: 6.00 Build 0)  -->
<svg version="1.1" id="Layer_1" xmlns="http://www.w3.org/2000/svg" xmlns:xlink="http://www.w3.org/1999/xlink" x="0px" y="0px"
	 viewBox="0 0 512 512" style="enable-background:new 0 0 512 512;" xml:space="preserve">
<filter id="blackAndWhite">
    <feColorMatrix
      type="matrix"
      values="0 1 0 0 0
              0 1 0 0 0
              0 1 0 0 0
              0 1 0 1 0 "/>
  </filter>
<path filter="url(#blackAndWhite)" style="fill:#FFBE00;" d="M256.001,0.004l-20.915,422.534l97.886-20.915v-24.633c0-35.515,13.314-69.938,37.952-95.518
	c0.698-0.724,1.403-1.442,2.115-2.151l0.01,0.011c29.154-29.634,47.141-70.288,47.141-115.143
	C420.191,73.511,346.68,0.004,256.001,0.004z"/>
<path filter="url(#blackAndWhite)" style="fill:#FFE074;" d="M256.001,38.224V0.004C255.87,0.004,255.74,0,255.61,0C164.875,0.211,91.809,73.456,91.81,164.192
	c0,44.855,17.987,85.509,47.141,115.142l0.01-0.011c0.713,0.709,1.418,1.427,2.115,2.151c24.639,25.579,37.952,60.002,37.952,95.518
	v24.633l76.972,20.915V69.571c52.174,0,94.62,42.447,94.62,94.621h31.347C381.968,94.733,325.459,38.224,256.001,38.224z"/>
<path filter="url(#blackAndWhite)" style="fill:#FF9302;" d="M256.001,152.609L245.543,412.08l26.131-10.457V282.455h29.874l29.187-129.846H256.001z
	 M276.466,251.108h-4.791v-67.152h19.886L276.466,251.108z"/>
<path filter="url(#blackAndWhite)" style="fill:#FFBE00;" d="M235.536,251.108l-15.094-67.152h19.886v67.152L235.536,251.108L235.536,251.108z M181.266,152.609
	l29.187,129.846h29.874v119.169l15.674,10.457V152.609H181.266z"/>
<path filter="url(#blackAndWhite)" style="fill:#898989;" d="M256.001,512h35.864c17.996,0,32.585-14.589,32.585-32.585v-29.609l-89.364-20.915L256.001,512z"/>
<g>
	<path filter="url(#blackAndWhite)" style="fill:#B3B3B3;" d="M187.551,449.805v29.609c0,17.996,14.589,32.585,32.585,32.585h35.864v-83.109L187.551,449.805z"/>
	<path filter="url(#blackAndWhite)" style="fill:#B3B3B3;" d="M324.451,449.805h11.462c6.653,0,12.047-5.394,12.047-12.047v-24.087
		c0-6.654-5.394-12.047-12.047-12.047h-79.912l-20.915,24.09l20.915,24.09H324.451z"/>
</g>
<path filter="url(#blackAndWhite)" style="fill:#D8D8D8;" d="M164.042,413.672v24.087c0,6.653,5.394,12.047,12.047,12.047h11.462h68.449v-48.181h-79.912
	C169.436,401.624,164.042,407.018,164.042,413.672z"/>
<g>
</g>
<g>
</g>
<g>
</g>
<g>
</g>
<g>
</g>
<g>
</g>
<g>
</g>
<g>
</g>
<g>
</g>
<g>
</g>
<g>
</g>
<g>
</g>
<g>
</g>
<g>
</g>
<g>
</g>
</svg>
